<?xml version="1.0" encoding="iso-8859-1"?>
<!-- Generator: Adobe Illustrator 19.0.0, SVG Export Plug-In . SVG Version: 6.00 Build 0)  -->
<svg xmlns="http://www.w3.org/2000/svg" xmlns:xlink="http://www.w3.org/1999/xlink" version="1.1" id="Layer_1" x="0px" y="0px" viewBox="0 0 511.967 511.967" style="enable-background:new 0 0 511.967 511.967;" xml:space="preserve" width="512" height="512">
<g>
	<g>
		<path style="fill:#6DAAD9;" d="M365.14,301.833l-7.678-20.935h-34.906l-7.678,20.935c-2.301,6.275,1.198,13.243,7.644,15.01    c4.243,1.163,9.944,2.04,17.488,2.04c7.544,0,13.245-0.877,17.488-2.04C363.942,315.076,367.441,308.108,365.14,301.833z"/>
		<path style="fill:#80C9FF;" d="M339.874,7.467c-59.797,0.077-108.247,48.575-108.247,108.389    c0,57.293,22.947,109.221,60.149,147.107c26.479,26.966,70.033,26.945,96.507-0.026c36.37-37.052,59.109-87.528,60.09-143.315    C449.447,58.507,400.998,7.388,339.874,7.467z"/>
		<path style="fill:#6DAAD9;" d="M321.775,262.963c-37.202-37.886-60.149-89.814-60.149-147.107    c0-54.754,40.602-100.017,93.338-107.344c-4.928-0.69-9.963-1.052-15.091-1.045c-59.797,0.077-108.247,48.575-108.247,108.389    c0,57.293,22.947,109.221,60.149,147.107c17.041,17.355,41.151,23.512,63.233,18.521    C342.795,278.723,331.201,272.563,321.775,262.963z"/>
		<path style="fill:#FAB3CE;" d="M167.55,120.373c-57.436,0.074-103.974,46.657-103.974,104.11    c0,55.031,22.041,104.909,57.774,141.299c25.433,25.901,67.268,25.881,92.697-0.025c34.934-35.589,56.775-84.072,57.718-137.657    C272.798,169.399,226.261,120.297,167.55,120.373z"/>
		<path style="fill:#E381A5;" d="M151.35,365.782c-35.733-36.39-57.774-86.268-57.774-141.299    c0-52.385,38.692-95.727,89.056-103.022c-4.92-0.718-9.953-1.094-15.083-1.088c-57.436,0.074-103.974,46.657-103.974,104.11    c0,55.031,22.041,104.909,57.774,141.299c16.52,16.824,39.958,22.699,61.328,17.659    C171.165,380.726,160.252,374.848,151.35,365.782z"/>
		<path style="fill:#E381A5;" d="M191.819,403.118l-7.375-20.109h-33.528l-7.375,20.109c-2.211,6.027,1.151,12.72,7.342,14.418    c4.076,1.117,9.551,1.96,16.797,1.96c7.246,0,12.722-0.842,16.797-1.96C190.668,415.838,194.029,409.145,191.819,403.118z"/>
	</g>
	<g>
		<path d="M114.319,265.248c4.142,0,7.5-3.358,7.5-7.5v-9.657c0-4.142-3.358-7.5-7.5-7.5s-7.5,3.358-7.5,7.5v9.657    C106.819,261.89,110.177,265.248,114.319,265.248z"/>
		<path d="M228.54,257.748v-9.657c0-4.142-3.358-7.5-7.5-7.5s-7.5,3.358-7.5,7.5v9.657c0,4.142,3.358,7.5,7.5,7.5    S228.54,261.89,228.54,257.748z"/>
		<path d="M167.679,270.403c7.297,0,14.156-3.059,18.817-8.392c2.726-3.119,2.408-7.856-0.711-10.583    c-3.118-2.726-7.856-2.408-10.583,0.711c-1.813,2.073-4.555,3.263-7.523,3.263c-2.968,0-5.71-1.189-7.523-3.263    c-2.726-3.119-7.465-3.437-10.583-0.711c-3.119,2.726-3.438,7.464-0.711,10.583C153.523,267.345,160.382,270.403,167.679,270.403z    "/>
		<path d="M276.955,140.433v10.054c0,4.142,3.358,7.5,7.5,7.5s7.5-3.358,7.5-7.5v-10.054c0-4.142-3.358-7.5-7.5-7.5    S276.955,136.291,276.955,140.433z"/>
		<path d="M395.562,132.933c-4.142,0-7.5,3.358-7.5,7.5v10.054c0,4.142,3.358,7.5,7.5,7.5s7.5-3.358,7.5-7.5v-10.054    C403.062,136.291,399.704,132.933,395.562,132.933z"/>
		<path d="M348.073,144.852c-1.945,2.226-4.885,3.502-8.064,3.502s-6.119-1.276-8.064-3.502c-2.726-3.119-7.464-3.437-10.583-0.711    s-3.437,7.464-0.711,10.583c4.794,5.485,11.851,8.63,19.358,8.63c7.509,0,14.564-3.146,19.358-8.631    c2.726-3.119,2.407-7.857-0.711-10.583C355.537,141.415,350.798,141.732,348.073,144.852z"/>
		<path d="M419.4,42.346c-3.235,2.586-3.761,7.306-1.174,10.542c15.03,18.796,23.073,42.461,22.647,66.636    c-0.915,51.981-21.493,101.059-57.944,138.193c-7.602,7.745-16.927,13.152-27.128,15.902c-0.104,0.023-0.211,0.034-0.314,0.062    c-10.083,2.67-20.874,2.669-30.955,0c-0.092-0.024-0.194-0.034-0.289-0.055c-10.198-2.745-19.518-8.146-27.117-15.884    c-6.484-6.603-12.588-13.747-18.171-21.266c0.027-0.478,0.043-0.949,0.068-1.425c1.119-22.035-2.846-43.739-13.418-63.246    c-0.017-0.032-0.034-0.065-0.052-0.097c-5.456-10.041-12.443-19.245-20.62-27.226c-1.409-1.377-2.846-2.714-4.313-4.006    c-0.991-8.175-1.492-16.431-1.492-24.586c0-55.559,45.199-100.818,100.757-100.89c0.045,0,0.087,0,0.132,0    c20.904,0,40.938,6.443,57.94,18.636c3.366,2.414,8.052,1.642,10.465-1.724c2.414-3.366,1.642-8.052-1.724-10.465    C387.129,7.414,364.076,0,340.016,0c-0.05,0-0.102,0-0.152,0c-63.818,0.083-115.737,52.07-115.737,115.89    c0,4.238,0.134,8.502,0.385,12.769c-17.016-10.27-36.5-15.752-56.825-15.752c-0.047,0-0.098,0-0.145,0    c-61.461,0.079-111.464,50.147-111.464,111.61c0,36.422,9.513,72.296,27.51,103.745c2.057,3.596,6.64,4.841,10.234,2.784    c3.595-2.057,4.842-6.64,2.784-10.234c-16.701-29.184-25.529-62.482-25.529-96.294c0-53.203,43.282-96.542,96.483-96.61    c0.042,0,0.083,0,0.125,0c22.458,0,43.739,7.751,60.895,22.009c9.327,7.752,17.252,17.244,23.167,27.834    c10.277,18.4,13.515,39.458,12.079,60.297c-3.174,46.104-22.529,89.279-55.13,122.491c-7.265,7.401-16.176,12.568-25.925,15.196    c-0.099,0.022-0.2,0.033-0.298,0.059c-9.636,2.551-19.948,2.551-29.582,0c-0.087-0.023-0.184-0.032-0.274-0.052    c-9.745-2.622-18.653-7.784-25.914-15.179c-4.7-4.787-9.254-9.944-13.535-15.33c-2.577-3.243-7.296-3.782-10.538-1.205    c-3.243,2.577-3.782,7.295-1.205,10.538c4.605,5.794,9.509,11.348,14.574,16.507c7.264,7.398,15.837,13.015,25.2,16.681    c0,0-4.699,12.813-4.701,12.817c-3.661,9.981,2.132,21.418,12.4,24.232c2.669,0.732,5.568,1.284,8.672,1.656    c1.13,2.553,2.653,4.929,4.543,7.022c3.938,4.36,3.938,10.936,0,15.295c-9.114,10.091-9.114,25.311,0,35.403    c3.938,4.36,3.938,10.936,0,15.295c-2.776,3.074-2.535,7.816,0.539,10.593c3.012,2.72,7.845,2.503,10.593-0.539    c9.114-10.092,9.114-25.312,0-35.403c-3.938-4.36-3.938-10.936,0-15.295c8.186-9.063,8.995-22.252,2.478-32.157    c3.89-0.357,7.486-0.978,10.737-1.87c10.278-2.82,16.062-14.248,12.401-24.232l-4.7-12.816c9.378-3.671,17.965-9.297,25.24-16.708    c30.71-31.285,50.51-70.779,57.286-113.413c3.142,3.658,6.39,7.209,9.739,10.619c7.604,7.744,16.592,13.607,26.409,17.406    c0,0-4.996,13.622-4.998,13.627c-3.749,10.223,2.188,21.943,12.702,24.825c2.813,0.771,5.873,1.35,9.155,1.736    c1.17,2.69,2.765,5.191,4.751,7.39c4.206,4.657,4.206,11.68,0,16.337c-9.383,10.388-9.383,26.056,0,36.444    c4.206,4.657,4.206,11.681,0,16.337c-9.382,10.389-9.382,26.057,0,36.445c4.206,4.657,4.206,11.681,0,16.337    c-9.382,10.388-9.382,26.056,0,36.445c2.712,3.003,7.544,3.293,10.593,0.539c3.074-2.776,3.315-7.519,0.539-10.593    c-4.206-4.657-4.206-11.681,0-16.337c9.382-10.389,9.382-26.056,0-36.445c-4.206-4.657-4.206-11.68,0-16.337    c9.382-10.388,9.382-26.056,0-36.445c-4.206-4.657-4.206-11.68,0-16.337c8.545-9.46,9.281-23.286,2.263-33.529    c4.233-0.36,8.129-1.024,11.642-1.987c10.531-2.888,16.453-14.597,12.702-24.826l-4.997-13.626    c9.834-3.803,18.835-9.675,26.451-17.433c39.151-39.886,61.254-92.602,62.237-148.437c0.486-27.662-8.723-54.748-25.931-76.268    C427.355,40.285,422.634,39.758,419.4,42.346z M184.778,405.734c0.686,1.869-0.337,4.067-2.284,4.601    c-4.097,1.124-9.081,1.693-14.814,1.693s-10.717-0.569-14.815-1.693c-1.949-0.535-2.966-2.741-2.283-4.601l5.133-13.995    c3.916,0.645,7.911,0.992,11.97,0.992c4.052,0,8.045-0.347,11.96-0.992L184.778,405.734z M358.099,304.45    c0.777,2.121-0.383,4.59-2.586,5.194c-4.292,1.177-9.508,1.773-15.504,1.773s-11.213-0.597-15.505-1.774    c-2.209-0.606-3.359-3.084-2.585-5.195l5.432-14.811c4.141,0.696,8.367,1.072,12.664,1.072c4.288,0,8.513-0.376,12.652-1.072    C352.666,289.638,358.098,304.448,358.099,304.45z"/>
	</g>
</g>















</svg>
