<?xml version="1.0" encoding="iso-8859-1"?>
<!-- Generator: Adobe Illustrator 19.0.0, SVG Export Plug-In . SVG Version: 6.00 Build 0)  -->
<svg xmlns="http://www.w3.org/2000/svg" xmlns:xlink="http://www.w3.org/1999/xlink" version="1.1" id="Layer_1" x="0px" y="0px" viewBox="0 0 512 512" style="enable-background:new 0 0 512 512;" xml:space="preserve" width="512" height="512">
<g>
	<g>
		<path style="fill:#80C9FF;" d="M414.239,38.544H97.76c-21.232,0-38.444,17.212-38.444,38.444v389.067    c0,21.232,17.212,38.444,38.444,38.444h316.479c21.232,0,38.444-17.212,38.444-38.444V76.988    C452.684,55.756,435.472,38.544,414.239,38.544z"/>
		<path style="fill:#6DAAD9;" d="M114.314,38.544v39.06c0,24.583,20,44.582,44.583,44.582h194.208c24.583,0,44.583-20,44.583-44.582    v-39.06H114.314z"/>
		<rect x="98.148" y="76.33" style="fill:#F5F5F5;" width="315.705" height="390.383"/>
		<path style="fill:#FC7176;" d="M256,292.707c185.519-97.237,69.73-208.549,0-140.402C186.27,84.158,70.481,195.469,256,292.707z"/>
		<path style="fill:#D9D9D9;" d="M114.314,76.33v1.273c0,24.583,20,44.582,44.583,44.582h194.208c24.583,0,44.583-20,44.583-44.582    V76.33H114.314z"/>
		<path style="fill:#E0D8E3;" d="M353.104,23.788h-52.746c-6.126,0-12.063-2.158-16.728-6.128C276.185,11.326,266.541,7.5,256,7.5    c-10.541,0-20.185,3.826-27.63,10.16c-4.665,3.97-10.602,6.128-16.728,6.128h-52.746c-8.054,0-14.582,6.529-14.582,14.582v39.234    c0,8.053,6.529,14.582,14.582,14.582h194.208c8.054,0,14.582-6.529,14.582-14.582V38.37    C367.686,30.316,361.157,23.788,353.104,23.788z"/>
		<circle style="fill:#A49EA6;" cx="256" cy="50.189" r="15.884"/>
	</g>
	<g>
		<path d="M256,26.805c-12.895,0-23.385,10.49-23.385,23.384S243.105,73.573,256,73.573c12.894,0,23.384-10.49,23.384-23.384    S268.894,26.805,256,26.805z M256,58.573c-4.623,0-8.385-3.761-8.385-8.384s3.762-8.384,8.385-8.384s8.384,3.761,8.384,8.384    S260.623,58.573,256,58.573z"/>
		<path d="M362.021,167.368c-6.313-25.645-30.234-43.555-58.17-43.555c-16.858,0-33.621,6.482-47.851,18.384    c-14.231-11.902-30.994-18.384-47.852-18.384c-27.94,0-51.864,17.911-58.177,43.555c-3.395,13.79-3.403,35.946,15.833,63.188    c17.363,24.59,46.538,47.735,86.713,68.793c2.162,1.133,4.801,1.133,6.963,0c40.173-21.057,69.346-44.201,86.708-68.792    C365.425,203.314,365.416,181.158,362.021,167.368z M333.937,221.906C318.45,243.84,292.241,264.792,256,284.218    c-36.243-19.427-62.455-40.38-77.942-62.313c-12.644-17.906-17.319-35.524-13.521-50.951c4.733-19.225,22.26-32.141,43.612-32.141    c15.035,0,30.168,6.696,42.609,18.855c2.914,2.849,7.569,2.849,10.484,0c12.441-12.159,27.573-18.855,42.609-18.855    c21.349,0,38.872,12.916,43.605,32.141C351.254,186.381,346.579,204,333.937,221.906z"/>
		<path d="M203.655,177.39c-4.142,0-7.5,3.358-7.5,7.5v9.473c0,4.142,3.358,7.5,7.5,7.5s7.5-3.358,7.5-7.5v-9.473    C211.155,180.748,207.797,177.39,203.655,177.39z"/>
		<path d="M308.344,177.39c-4.142,0-7.5,3.358-7.5,7.5v9.473c0,4.142,3.358,7.5,7.5,7.5s7.5-3.358,7.5-7.5v-9.473    C315.844,180.748,312.486,177.39,308.344,177.39z"/>
		<path d="M273.854,188.057c-3.119-2.726-7.856-2.408-10.583,0.711c-1.75,2.002-4.401,3.151-7.272,3.151s-5.522-1.149-7.272-3.151    c-2.727-3.119-7.464-3.438-10.583-0.711c-3.119,2.726-3.437,7.464-0.711,10.583c4.599,5.262,11.366,8.28,18.566,8.28    c7.199,0,13.967-3.018,18.566-8.28C277.292,195.521,276.974,190.783,273.854,188.057z"/>
		<path d="M352.133,404.971H159.867c-4.143,0-7.5,3.358-7.5,7.5s3.357,7.5,7.5,7.5h192.265c4.142,0,7.5-3.358,7.5-7.5    S356.275,404.971,352.133,404.971z"/>
		<path d="M352.133,365.338H159.867c-4.143,0-7.5,3.358-7.5,7.5s3.357,7.5,7.5,7.5h192.265c4.142,0,7.5-3.358,7.5-7.5    S356.275,365.338,352.133,365.338z"/>
		<path d="M352.133,325.705H159.867c-4.143,0-7.5,3.358-7.5,7.5s3.357,7.5,7.5,7.5h192.265c4.142,0,7.5-3.358,7.5-7.5    S356.275,325.705,352.133,325.705z"/>
		<path d="M414.239,31.043h-40.308c-3.029-8.585-11.219-14.756-20.828-14.756h-52.746c-4.364,0-8.579-1.541-11.868-4.339    C279.435,4.243,267.896,0,256,0c-11.896,0-23.435,4.243-32.49,11.948c-3.289,2.798-7.503,4.339-11.868,4.339h-52.746    c-9.608,0-17.799,6.171-20.828,14.756H97.76c-25.333,0-45.944,20.611-45.944,45.945v389.067C51.816,491.39,72.427,512,97.76,512    h316.479c25.334,0,45.945-20.61,45.945-45.944V153.972c0-4.142-3.358-7.5-7.5-7.5s-7.5,3.358-7.5,7.5v312.083    c0,17.063-13.882,30.944-30.945,30.944H97.76c-17.063,0-30.944-13.881-30.944-30.944V76.988c0-17.063,13.881-30.945,30.944-30.945    h39.053V68.83H98.147c-4.142,0-7.5,3.358-7.5,7.5v285.642c0,4.142,3.358,7.5,7.5,7.5s7.5-3.358,7.5-7.5V83.83h32.06    c0.011,0.039,0.027,0.075,0.039,0.113c1.639,5.36,5.311,10.004,10.168,12.803c3.326,1.916,7.143,2.939,10.982,2.939h194.208    c4.862,0,9.636-1.651,13.483-4.618c3.602-2.778,6.413-6.736,7.667-11.124c0.012-0.038,0.027-0.075,0.039-0.113h32.06v375.383    H105.647v-67.241c0-4.142-3.358-7.5-7.5-7.5s-7.5,3.358-7.5,7.5v74.741c0,4.142,3.358,7.5,7.5,7.5h315.705    c4.142,0,7.5-3.358,7.5-7.5V76.33c0-4.142-3.358-7.5-7.5-7.5h-38.666V46.043h39.053c17.063,0,30.945,13.882,30.945,30.945v46.984    c0,4.142,3.358,7.5,7.5,7.5s7.5-3.358,7.5-7.5V76.988C460.184,51.654,439.573,31.043,414.239,31.043z M158.896,84.686    c-4.711,0-7.083-4.159-7.083-8.355V38.37c0-3.905,3.177-7.082,7.082-7.082h52.746c7.923,0,15.59-2.811,21.589-7.916    C239.576,17.973,247.662,15,256,15s16.424,2.973,22.769,8.372c5.999,5.104,13.666,7.916,21.588,7.916h52.746    c3.905,0,7.082,3.177,7.082,7.082V76.33c0,4.239-2.314,8.355-7.082,8.355C353.104,84.686,159.152,84.686,158.896,84.686z"/>
	</g>
</g>















</svg>
