<?xml version="1.0" encoding="iso-8859-1"?>
<!-- Generator: Adobe Illustrator 19.0.0, SVG Export Plug-In . SVG Version: 6.00 Build 0)  -->
<svg xmlns="http://www.w3.org/2000/svg" xmlns:xlink="http://www.w3.org/1999/xlink" version="1.1" id="Layer_1" x="0px" y="0px" viewBox="0 0 512 512" style="enable-background:new 0 0 512 512;" xml:space="preserve" width="512" height="512">
<g>
	<g>
		<path style="fill:#D9D9D9;" d="M472.73,45.066H39.269c-17.546,0-31.77,14.224-31.77,31.77v358.328    c0,17.546,14.224,31.77,31.77,31.77H472.73c17.546,0,31.77-14.224,31.77-31.77V76.836C504.5,59.29,490.276,45.066,472.73,45.066z"/>
		<rect x="52.5" y="90.066" style="fill:#38484A;" width="407" height="301.867"/>
		<path style="fill:#9AD48D;" d="M332.062,159.51c-3.588-9.088-14.837-12.255-22.648-6.385    c-14.877,11.18-33.372,17.805-53.415,17.805c-20.043,0-38.538-6.625-53.415-17.805c-7.811-5.87-19.061-2.703-22.649,6.385    l-39.1,99.049c-6.3,15.96,1.014,34.078,16.649,41.148c1.801,0.814,3.614,1.607,5.439,2.379    c29.562,12.504,60.877,18.843,93.076,18.843c32.198,0,63.514-6.339,93.075-18.843c1.826-0.772,3.64-1.566,5.441-2.38    c15.635-7.07,22.95-25.188,16.649-41.148L332.062,159.51z"/>
	</g>
	<g>
		<path d="M512,435.164V76.836c0-21.653-17.616-39.27-39.27-39.27H133.976c-4.142,0-7.5,3.358-7.5,7.5s3.358,7.5,7.5,7.5H472.73    c13.382,0,24.27,10.887,24.27,24.27v358.328c0,13.382-10.887,24.27-24.27,24.27h-58.754c-4.142,0-7.5,3.358-7.5,7.5    s3.358,7.5,7.5,7.5h58.754C494.384,474.434,512,456.817,512,435.164z"/>
		<path d="M383.976,474.434c4.142,0,7.5-3.358,7.5-7.5s-3.358-7.5-7.5-7.5H39.27c-13.382,0-24.27-10.887-24.27-24.27V76.836    c0-13.382,10.887-24.27,24.27-24.27h64.707c4.142,0,7.5-3.358,7.5-7.5s-3.358-7.5-7.5-7.5H39.27C17.616,37.566,0,55.183,0,76.836    v358.328c0,21.653,17.616,39.27,39.27,39.27H383.976z"/>
		<path d="M467,391.934V90.066c0-4.142-3.358-7.5-7.5-7.5h-407c-4.142,0-7.5,3.358-7.5,7.5v301.867c0,4.142,3.358,7.5,7.5,7.5h407    C463.642,399.434,467,396.076,467,391.934z M452,384.434H60V97.566h392V384.434z"/>
		<circle cx="256" cy="429.434" r="11.86"/>
		<path d="M154.395,306.542c1.858,0.84,3.745,1.665,5.606,2.453c30.49,12.896,62.788,19.435,95.998,19.435    s65.508-6.539,95.998-19.436c21.266-8.995,35.353-29.861,26.144-53.19c0,0-39.059-98.94-39.102-99.048    c-5.321-13.479-22.545-18.334-34.13-9.626c-14.191,10.664-31.104,16.3-48.91,16.3c-17.807,0-34.719-5.637-48.909-16.301    c-11.623-8.735-28.806-3.861-34.131,9.627l-39.1,99.049C126.074,275.529,135.094,297.814,154.395,306.542z M147.812,261.313    c0,0,38.992-98.776,39.099-99.049c1.747-4.424,7.385-5.987,11.167-3.144c16.81,12.632,36.838,19.31,57.921,19.31    c21.082,0,41.11-6.677,57.92-19.309c3.801-2.856,9.419-1.285,11.167,3.143c0,0,39.03,98.866,39.101,99.048    c6.193,15.687-4.351,28.079-18.036,33.867c-28.63,12.11-58.962,18.25-90.153,18.25c-31.191,0-61.523-6.14-90.154-18.25    C152.068,289.352,141.582,277.093,147.812,261.313z"/>
		<path d="M196.941,245.531c4.142,0,7.5-3.358,7.5-7.5v-10.689c0-4.142-3.358-7.5-7.5-7.5s-7.5,3.358-7.5,7.5v10.689    C189.441,242.173,192.799,245.531,196.941,245.531z"/>
		<path d="M315.059,245.531c4.142,0,7.5-3.358,7.5-7.5v-10.689c0-4.142-3.358-7.5-7.5-7.5s-7.5,3.358-7.5,7.5v10.689    C307.559,242.173,310.917,245.531,315.059,245.531z"/>
		<path d="M256,251.236c7.845,0,15.216-3.285,20.223-9.013c2.726-3.119,2.408-7.856-0.71-10.583    c-3.118-2.727-7.857-2.409-10.583,0.71c-2.159,2.469-5.414,3.885-8.93,3.885s-6.771-1.416-8.93-3.885    c-2.726-3.119-7.464-3.437-10.583-0.71c-3.119,2.726-3.437,7.464-0.71,10.583C240.784,247.951,248.155,251.236,256,251.236z"/>
		<path d="M396.5,348.293c-4.142,0-7.5,3.358-7.5,7.5s3.358,7.5,7.5,7.5h36c4.142,0,7.5-3.358,7.5-7.5s-3.358-7.5-7.5-7.5H422V248.5    h10.5c4.142,0,7.5-3.358,7.5-7.5s-3.358-7.5-7.5-7.5H422v-99.793h10.5c4.142,0,7.5-3.358,7.5-7.5s-3.358-7.5-7.5-7.5h-36    c-4.142,0-7.5,3.358-7.5,7.5s3.358,7.5,7.5,7.5H407V233.5h-10.5c-4.142,0-7.5,3.358-7.5,7.5s3.358,7.5,7.5,7.5H407v99.793H396.5z"/>
		<path d="M81.5,133.707h48c4.142,0,7.5-3.358,7.5-7.5s-3.358-7.5-7.5-7.5h-48c-4.142,0-7.5,3.358-7.5,7.5    S77.358,133.707,81.5,133.707z"/>
		<path d="M81.5,160.207h38c4.142,0,7.5-3.358,7.5-7.5s-3.358-7.5-7.5-7.5h-38c-4.142,0-7.5,3.358-7.5,7.5    S77.358,160.207,81.5,160.207z"/>
		<path d="M81.5,186.707h28c4.142,0,7.5-3.358,7.5-7.5s-3.358-7.5-7.5-7.5h-28c-4.142,0-7.5,3.358-7.5,7.5    S77.358,186.707,81.5,186.707z"/>
		<path d="M81.5,336.793h38c4.142,0,7.5-3.358,7.5-7.5s-3.358-7.5-7.5-7.5h-38c-4.142,0-7.5,3.358-7.5,7.5    S77.358,336.793,81.5,336.793z"/>
		<path d="M81.5,363.293h28c4.142,0,7.5-3.358,7.5-7.5s-3.358-7.5-7.5-7.5h-28c-4.142,0-7.5,3.358-7.5,7.5    S77.358,363.293,81.5,363.293z"/>
	</g>
</g>















</svg>
