<svg id="Capa_1" enable-background="new 0 0 512.039 512.039" height="512" viewBox="0 0 512.039 512.039" width="512" xmlns="http://www.w3.org/2000/svg"><path d="m92.508 504.529c-6.322 0-12.642-2.411-17.466-7.235-9.646-9.646-9.646-25.285 0-34.931l76.142-76.141c9.645-9.647 25.285-9.646 34.931 0s9.646 25.285 0 34.931l-76.142 76.141c-4.822 4.823-11.145 7.235-17.465 7.235z" fill="#4e5660"/><path d="m419.531 504.529c6.322 0 12.642-2.411 17.466-7.235 9.646-9.646 9.646-25.285 0-34.931l-76.142-76.141c-9.645-9.647-25.284-9.646-34.931 0-9.646 9.646-9.646 25.285 0 34.931l76.142 76.141c4.822 4.823 11.145 7.235 17.465 7.235z" fill="#4e5660"/><circle cx="256.019" cy="256.029" fill="#a3defe" r="215.809"/><path d="m369.906 439.358c-242.944-40.013-256.327-294.379-196.56-382.721-78.161 32.444-133.136 109.493-133.136 199.392 0 119.188 96.621 215.809 215.809 215.809 41.807 0 80.829-11.9 113.887-32.48z" fill="#7acefa"/><ellipse cx="256.019" cy="256.029" fill="#fff" rx="175.668" ry="175.668" transform="matrix(.707 -.707 .707 .707 -106.054 256.022)"/><path d="m80.352 256.029c0 97.019 78.649 175.668 175.668 175.668 18.59 0 36.502-2.897 53.319-8.249-148.692-55.623-181.353-208.128-159.829-307.11-42.032 32.097-69.158 82.722-69.158 139.691z" fill="#fcf2d0"/><path d="m256.019 115.262c-4.142 0-7.5-3.358-7.5-7.5v-4.194c0-4.142 3.358-7.5 7.5-7.5 4.143 0 7.5 3.358 7.5 7.5v4.194c0 4.142-3.357 7.5-7.5 7.5z" fill="#fcf2d0"/><path d="m107.752 263.529h-4.194c-4.142 0-7.5-3.358-7.5-7.5s3.358-7.5 7.5-7.5h4.194c4.142 0 7.5 3.358 7.5 7.5s-3.358 7.5-7.5 7.5z" fill="#fff"/><path d="m256.019 415.991c-4.142 0-7.5-3.358-7.5-7.5v-4.194c0-4.142 3.358-7.5 7.5-7.5 4.143 0 7.5 3.358 7.5 7.5v4.194c0 4.142-3.357 7.5-7.5 7.5z" fill="#fff"/><path d="m408.481 263.529h-4.194c-4.143 0-7.5-3.358-7.5-7.5s3.357-7.5 7.5-7.5h4.194c4.143 0 7.5 3.358 7.5 7.5s-3.357 7.5-7.5 7.5z" fill="#fcf2d0"/><circle cx="32.318" cy="32.328" fill="#eea849" r="19.965"/><path d="m54.5 155.522c-10.764 10.764-28.939 8.042-35.976-5.456-19.154-36.743-13.304-83.131 17.549-113.983 30.852-30.853 77.24-36.703 113.984-17.549 13.498 7.036 16.22 25.212 5.456 35.976z" fill="#f7ef87"/><path d="m75.862 11.97c-14.557 4.546-28.259 12.581-39.79 24.113-30.852 30.852-36.702 77.24-17.548 113.984 7.036 13.499 25.212 16.22 35.976 5.456l51.26-51.26c-29.197-21.336-36.043-62.58-29.898-92.293z" fill="#efd176"/><circle cx="479.721" cy="32.328" fill="#eea849" r="19.965"/><path d="m457.539 155.522c10.764 10.764 28.94 8.042 35.976-5.456 19.154-36.744 13.304-83.131-17.549-113.984-30.853-30.852-77.24-36.702-113.984-17.548-13.499 7.036-16.22 25.212-5.456 35.976z" fill="#f7ef87"/><path d="m441.607 13.861c-25.794-9.766-54.892-8.22-79.625 4.673-13.499 7.036-16.22 25.212-5.456 35.976l94.256 94.256c-18.899-35.64-36.064-93.817-9.175-134.905z" fill="#efd176"/><path d="m360.249 346.093-4.69-29.123c-1.602-9.951-13.799-13.9-20.931-6.783l-66.384-66.384c-6.752-6.753-17.7-6.753-24.452 0-6.752 6.752-6.752 17.7 0 24.452l66.384 66.384c-7.117 7.132-3.168 19.329 6.783 20.931l29.122 4.689c8.318 1.339 15.507-5.85 14.168-14.166z" fill="#4e5660"/><path d="m268.245 243.803c-6.752-6.753-17.7-6.753-24.452 0l-44.943 44.943c-7.132-7.117-19.329-3.168-20.931 6.783l-4.689 29.122c-1.339 8.316 5.851 15.506 14.167 14.167l29.123-4.689c9.951-1.602 13.9-13.799 6.783-20.931l44.944-44.944c6.751-6.751 6.751-17.698-.002-24.451z" fill="#e8899e"/><ellipse cx="162.639" cy="210.756" fill="#eda1ab" rx="34.455" ry="27.439"/><ellipse cx="349.4" cy="210.756" fill="#eda1ab" rx="34.455" ry="27.439"/><ellipse cx="256.019" cy="189.673" fill="#4e5660" rx="27.78" ry="31.085"/><path d="m256.019 72.862c-100.999 0-183.168 82.168-183.168 183.168s82.169 183.168 183.168 183.168 183.168-82.169 183.168-183.168-82.169-183.168-183.168-183.168zm0 351.335c-92.728 0-168.168-75.44-168.168-168.168s75.44-168.168 168.168-168.168c92.729 0 168.168 75.44 168.168 168.168s-75.439 168.168-168.168 168.168zm106.945-108.419c-1.189-7.396-6.356-13.424-13.481-15.734-4.633-1.501-9.513-1.245-13.819.571l-62.115-62.115c-.003-.003-.007-.006-.01-.009-4.681-4.676-10.902-7.252-17.519-7.252-6.622 0-12.848 2.579-17.529 7.261l-40.674 40.674c-4.305-1.815-9.186-2.071-13.818-.571-7.126 2.309-12.292 8.338-13.484 15.734l-4.689 29.123c-1.025 6.369 1.002 12.638 5.564 17.2 3.784 3.784 8.744 5.825 13.96 5.825 1.072 0 2.154-.086 3.24-.261l29.123-4.689c7.396-1.191 13.425-6.358 15.734-13.484 1.501-4.63 1.244-9.512-.571-13.817l23.145-23.146 44.586 44.586c-1.815 4.306-2.072 9.186-.572 13.816 2.31 7.127 8.338 12.294 15.734 13.485l29.123 4.689c1.086.175 2.167.261 3.239.261 5.216-.001 10.176-2.041 13.96-5.825 4.563-4.562 6.59-10.831 5.564-17.2zm-100.023-52.826-44.943 44.944c-2.927 2.927-2.929 7.671-.005 10.601 1.894 1.898 1.458 4.08 1.183 4.93s-1.202 2.872-3.849 3.298l-29.122 4.689c-1.557.254-3.092-.245-4.209-1.361-1.116-1.116-1.612-2.65-1.361-4.208l4.689-29.122c.426-2.647 2.449-3.574 3.298-3.849.343-.111.902-.249 1.572-.249.992 0 2.226.301 3.358 1.431 2.93 2.924 7.675 2.922 10.601-.005l44.944-44.943c1.849-1.849 4.307-2.868 6.922-2.868 2.614 0 5.071 1.018 6.919 2.865.001.001.002.002.003.003l.006.006c1.845 1.848 2.862 4.305 2.862 6.917 0 2.613-1.018 5.071-2.868 6.921zm88.542 88.541c-1.115 1.116-2.646 1.613-4.208 1.361l-29.123-4.689c-2.647-.426-3.574-2.449-3.85-3.299-.275-.85-.711-3.032 1.184-4.929 2.924-2.93 2.922-7.675-.005-10.601l-48.855-48.855 6.922-6.922c2.421-2.42 4.273-5.255 5.504-8.342l50.273 50.273c2.928 2.927 7.672 2.929 10.602.005 1.898-1.894 4.081-1.458 4.931-1.183s2.871 1.202 3.298 3.849l4.69 29.123c.25 1.559-.247 3.093-1.363 4.209zm159.432-261.71c-1.931-13.233-6.293-25.735-12.825-37.075.353-.317.716-.623 1.052-.959 10.708-10.708 10.708-28.133 0-38.841-10.71-10.71-28.133-10.709-38.842 0-.336.336-.642.699-.959 1.051-11.34-6.532-23.842-10.894-37.075-12.825-22.044-3.217-44.09.5-63.75 10.748-8.551 4.457-14.296 12.491-15.764 22.043-.925 6.017-.054 11.97 2.415 17.266-27.859-12.161-58.011-18.471-89.148-18.471-31.148 0-61.31 6.314-89.178 18.485 3.139-6.742 3.714-14.52 1.363-21.891-1.259-3.946-5.478-6.125-9.424-4.867-3.946 1.259-6.125 5.478-4.867 9.424 1.735 5.439.315 11.315-3.704 15.335l-101.013 101.013c-3.442 3.443-8.181 4.995-13.002 4.252-4.779-.734-8.795-3.603-11.02-7.871-15.507-29.748-13.118-64.754 5.099-91.743.087-.123.176-.242.256-.37 3.156-4.625 6.765-9.02 10.846-13.1 23.104-23.105 56.995-31.875 88.445-22.887 3.981 1.14 8.134-1.167 9.272-5.151 1.138-3.982-1.168-8.134-5.151-9.272-27.658-7.902-56.933-4.025-81.218 9.909-.325-.362-.639-.734-.984-1.079-10.707-10.709-28.133-10.708-38.841 0s-10.708 28.133 0 38.841c.337.336.7.642 1.052.96-6.532 11.34-10.895 23.842-12.826 37.075-3.217 22.046.5 44.09 10.749 63.751 4.457 8.551 12.492 14.296 22.043 15.764 1.573.242 3.14.361 4.693.361 4.391 0 8.661-.956 12.573-2.78-12.163 27.86-18.473 58.014-18.473 89.151 0 59.648 23.228 115.726 65.406 157.903 2.468 2.468 4.988 4.865 7.549 7.202l-35.925 35.925c-12.555 12.555-12.555 32.983 0 45.538 6.082 6.082 14.168 9.432 22.769 9.432s16.687-3.35 22.769-9.432l44.799-44.798c29.592 14.097 62.195 21.539 95.944 21.539 33.748 0 66.352-7.442 95.943-21.539l44.799 44.798c6.082 6.082 14.168 9.432 22.77 9.432 8.601 0 16.687-3.35 22.77-9.432 12.554-12.555 12.554-32.983 0-45.538l-35.927-35.926c2.561-2.337 5.081-4.734 7.549-7.202 2.929-2.929 2.929-7.678 0-10.606-2.93-2.929-7.678-2.929-10.607 0-4.03 4.031-8.204 7.865-12.496 11.52-.139.108-.273.223-.406.342-12.263 10.39-25.543 19.237-39.606 26.438-.551.205-1.084.473-1.585.811-28.577 14.323-60.307 21.901-93.203 21.901-114.862 0-208.309-93.447-208.309-208.309 0-45.115 14.178-88.018 41.001-124.111l43.196-43.196c36.091-26.823 78.995-41.002 124.11-41.002 45.117 0 88.021 14.179 124.113 41.003l43.196 43.196c26.821 36.092 40.999 78.995 40.999 124.11 0 43.729-13.396 85.578-38.741 121.023-2.409 3.369-1.631 8.054 1.738 10.463 1.322.945 2.846 1.4 4.356 1.4 2.338 0 4.643-1.091 6.107-3.138 27.176-38.005 41.54-82.871 41.54-129.748 0-31.138-6.31-61.291-18.473-89.151 3.912 1.824 8.182 2.78 12.574 2.78 1.553 0 3.121-.119 4.692-.361 9.553-1.467 17.587-7.213 22.045-15.764 10.25-19.66 13.967-41.705 10.75-63.75zm-487.411-66.269c4.514-4.514 11.655-4.829 16.544-.957-3.227 2.542-6.332 5.276-9.278 8.222s-5.691 6.038-8.238 9.257c-3.855-4.888-3.536-12.014.972-16.522zm371.419 407.383 36.771 36.77c6.706 6.706 6.706 17.618.001 24.324-3.25 3.249-7.569 5.039-12.163 5.039-4.595 0-8.914-1.789-12.162-5.038l-41.453-41.453c10.113-5.736 19.804-12.304 29.006-19.642zm-277.808 0c9.202 7.339 18.893 13.906 29.008 19.642l-41.453 41.453c-3.249 3.249-7.568 5.038-12.163 5.038-4.594 0-8.914-1.789-12.163-5.038-6.706-6.707-6.706-17.618 0-24.325zm371.419-407.383c4.508 4.508 4.827 11.633.973 16.522-2.547-3.219-5.291-6.311-8.237-9.256-2.946-2.946-6.038-5.691-9.257-8.238 4.887-3.854 12.014-3.536 16.521.972zm-1.669 123.085c-2.226 4.269-6.242 7.138-11.022 7.872-4.814.74-9.558-.809-13.001-4.252l-101.012-101.012c-3.443-3.443-4.993-8.182-4.252-13.002.734-4.779 3.603-8.795 7.871-11.02 13.233-6.898 27.507-10.257 41.653-10.257 17.559 0 34.916 5.181 49.844 15.186.16.123.327.239.5.35 4.668 3.174 9.102 6.807 13.217 10.922 4.08 4.08 7.689 8.473 10.844 13.098.082.132.174.254.263.379 18.214 26.988 20.601 61.991 5.095 91.736zm-230.846 81.66c19.453 0 35.279-17.31 35.279-38.585 0-21.276-15.826-38.585-35.279-38.585s-35.28 17.31-35.28 38.585c.001 21.275 15.827 38.585 35.28 38.585zm0-62.171c11.182 0 20.279 10.581 20.279 23.585 0 13.005-9.098 23.585-20.279 23.585-11.182 0-20.28-10.581-20.28-23.585.001-13.004 9.098-23.585 20.28-23.585zm87.62 19.769c4.143 0 7.5-3.358 7.5-7.5v-14.789c0-4.142-3.357-7.5-7.5-7.5s-7.5 3.358-7.5 7.5v14.789c0 4.142 3.358 7.5 7.5 7.5zm-167.74-7.5v-14.789c0-4.142-3.358-7.5-7.5-7.5s-7.5 3.358-7.5 7.5v14.789c0 4.142 3.358 7.5 7.5 7.5s7.5-3.358 7.5-7.5z"/></svg>