<svg id="Capa_1" enable-background="new 0 0 512 512" height="512" viewBox="0 0 512 512" width="512" xmlns="http://www.w3.org/2000/svg"><g><g><path d="m390.25 63.472c-14.349-8.284-32.697-3.368-40.981 10.981l-30 51.961c-8.284 14.349-3.368 32.697 10.981 40.981 14.349 8.284 32.697 3.368 40.981-10.981l30-51.961c8.284-14.349 3.368-32.696-10.981-40.981z" fill="#5fd9b3"/></g><g><path d="m121.75 63.472c-14.349 8.284-19.265 26.632-10.981 40.981l30 51.961c8.284 14.349 26.632 19.265 40.981 10.981 14.349-8.284 19.265-26.632 10.981-40.981l-30-51.961c-8.284-14.349-26.632-19.265-40.981-10.981z" fill="#ea5b70"/></g><g><path d="m226 27.5h60.001v80h-60.001z" fill="#ffce71"/></g><g><circle cx="256" cy="296" fill="#676f72" r="208.5"/></g><g><path d="m236 484.5c0-11.046 8.954-20 20-20v-337c-11.046 0-20-8.954-20-20s8.954-20 20-20c-115.151 0-208.5 93.349-208.5 208.5s93.349 208.5 208.5 208.5c-11.046 0-20-8.954-20-20z" fill="#4c5659"/></g><g><circle cx="256" cy="296" fill="#efedee" r="168.5"/></g><g><path d="m292.542 427.958c-92.911 0-168.5-75.589-168.5-168.5 0-37.152 12.096-71.528 32.543-99.415-41.854 30.687-69.085 80.198-69.085 135.957 0 92.911 75.589 168.5 168.5 168.5 55.759 0 105.269-27.231 135.957-69.085-27.887 20.448-62.263 32.543-99.415 32.543z" fill="#d4d4d5"/></g><g><path d="m256 296c-8.284 0-15-6.716-15-15v-43.5c0-8.284 6.716-15 15-15 8.284 0 15 6.716 15 15v43.5c0 8.284-6.716 15-15 15z" fill="#ea5b70"/></g><g><path d="m319.653 332.75c-4.142 7.174-13.316 9.633-20.49 5.49l-37.672-21.75c-7.174-4.142-9.632-13.316-5.49-20.49 4.142-7.174 13.316-9.633 20.49-5.49l37.672 21.75c7.174 4.142 9.632 13.316 5.49 20.49z" fill="#5fd9b3"/></g><g><circle cx="256" cy="296" fill="#ff8e9e" r="30"/></g><g><path d="m296 47.5h-80c-11.046 0-20-8.954-20-20 0-11.046 8.954-20 20-20h80c11.046 0 20 8.954 20 20 0 11.046-8.954 20-20 20z" fill="#fce3a0"/></g><g><path d="m256 27.5c0-11.046 8.954-20 20-20h-60c-11.046 0-20 8.954-20 20 0 11.046 8.954 20 20 20h60c-11.046 0-20-8.954-20-20z" fill="#ffce71"/></g><g><path d="m408.735 143.265c-4.472-4.472-9.115-8.711-13.898-12.737l12.889-22.324c10.339-17.907 4.181-40.887-13.726-51.227-17.907-10.341-40.887-4.182-51.226 13.727l-12.837 22.235c-11.788-4.284-23.969-7.542-36.436-9.712v-28.227h2.5c15.164 0 27.5-12.337 27.5-27.5s-12.337-27.5-27.501-27.5h-3.771c-4.142 0-7.5 3.357-7.5 7.5s3.358 7.5 7.5 7.5h3.771c6.893 0 12.5 5.607 12.5 12.5s-5.607 12.5-12.5 12.5h-80c-6.893 0-12.5-5.607-12.5-12.5s5.607-12.5 12.5-12.5h45.229c4.142 0 7.5-3.357 7.5-7.5s-3.358-7.5-7.5-7.5h-45.229c-15.164 0-27.5 12.337-27.5 27.5s12.336 27.5 27.5 27.5h2.5v28.226c-12.467 2.17-24.648 5.427-36.436 9.712l-12.838-22.235c-5.008-8.675-13.095-14.88-22.77-17.473-9.677-2.592-19.782-1.261-28.456 3.747-8.675 5.008-14.88 13.095-17.472 22.771-2.593 9.675-1.262 19.78 3.746 28.455l12.889 22.324c-4.782 4.026-9.425 8.265-13.898 12.737-40.797 40.798-63.265 95.041-63.265 152.736s22.468 111.938 63.265 152.735 95.039 63.265 152.735 63.265 111.938-22.468 152.735-63.265 63.265-95.04 63.265-152.735-22.468-111.938-63.265-152.735zm-52.971-65.062c3.005-5.205 7.857-8.928 13.662-10.483s11.869-.757 17.074 2.248 8.928 7.857 10.483 13.662c1.556 5.805.757 11.868-2.248 17.073l-11.821 20.474c-12.224-8.914-25.262-16.468-38.933-22.568zm-122.264-23.203h45v26.161c-7.426-.764-14.932-1.161-22.5-1.161s-15.074.397-22.5 1.161zm-116.236 45.703c-6.203-10.744-2.508-24.532 8.236-30.736 10.744-6.202 24.532-2.509 30.736 8.236l11.782 20.406c-13.671 6.1-26.708 13.654-38.933 22.568zm138.736 396.297c-110.832 0-201-90.168-201-201s90.168-201 201-201 201 90.168 201 201-90.168 201-201 201z"/><path d="m256 120c-97.047 0-176 78.953-176 176 0 41.164 14.567 81.233 41.018 112.828 2.659 3.178 7.39 3.594 10.565.937 3.176-2.659 3.595-7.39.937-10.565-24.195-28.9-37.52-65.551-37.52-103.2 0-88.775 72.224-161 161-161s161 72.225 161 161-72.224 161-161 161c-37.652 0-74.304-13.326-103.205-37.524-3.176-2.659-7.906-2.239-10.565.937s-2.24 7.906.936 10.565c31.595 26.453 71.667 41.022 112.834 41.022 97.047 0 176-78.953 176-176s-78.953-176-176-176z"/><path d="m233.5 237.5v28.521c-9.102 6.848-15 17.737-15 29.979 0 20.678 16.822 37.5 37.5 37.5 5.226 0 10.203-1.078 14.727-3.017l24.685 14.252c3.467 2.002 7.315 3.024 11.214 3.024 1.954 0 3.921-.257 5.859-.776 5.805-1.556 10.657-5.278 13.662-10.483s3.803-11.269 2.248-17.073c-1.556-5.806-5.279-10.657-10.483-13.662l-24.691-14.255c-1.247-10.391-6.75-19.491-14.722-25.489v-28.521c0-12.406-10.093-22.5-22.5-22.5s-22.499 10.094-22.499 22.5zm0 58.5c0-12.406 10.093-22.5 22.5-22.5s22.5 10.094 22.5 22.5-10.093 22.5-22.5 22.5-22.5-10.094-22.5-22.5zm80.407 27.309c.519 1.935.252 3.956-.749 5.691-1.002 1.735-2.619 2.977-4.554 3.495-1.936.517-3.956.251-5.691-.75l-18.865-10.892c3.316-3.739 5.895-8.141 7.515-12.982l18.85 10.883c1.734 1.003 2.976 2.62 3.494 4.555zm-57.907-93.309c4.136 0 7.5 3.364 7.5 7.5v21.755c-2.424-.494-4.932-.755-7.5-.755s-5.076.261-7.5.755v-21.755c0-4.136 3.364-7.5 7.5-7.5z"/><path d="m263.5 182.5v-15c0-4.143-3.358-7.5-7.5-7.5s-7.5 3.357-7.5 7.5v15c0 4.143 3.358 7.5 7.5 7.5s7.5-3.357 7.5-7.5z"/><path d="m248.5 409.5v15c0 4.143 3.358 7.5 7.5 7.5s7.5-3.357 7.5-7.5v-15c0-4.143-3.358-7.5-7.5-7.5s-7.5 3.357-7.5 7.5z"/><path d="m192.755 201.456c1.389 2.406 3.91 3.751 6.502 3.751 1.272 0 2.562-.324 3.743-1.006 3.587-2.071 4.816-6.658 2.745-10.245l-7.5-12.99c-2.072-3.588-6.659-4.814-10.245-2.745-3.587 2.071-4.816 6.658-2.745 10.245z"/><path d="m309 387.799c-3.587 2.071-4.816 6.658-2.745 10.245l7.5 12.99c1.389 2.406 3.91 3.751 6.502 3.751 1.272 0 2.562-.324 3.743-1.006 3.587-2.071 4.816-6.658 2.745-10.245l-7.5-12.99c-2.071-3.588-6.658-4.815-10.245-2.745z"/><path d="m153.956 245.745c1.181.682 2.471 1.006 3.743 1.006 2.592 0 5.113-1.345 6.502-3.751 2.071-3.587.842-8.174-2.745-10.245l-12.99-7.5c-3.587-2.07-8.174-.843-10.245 2.745-2.071 3.587-.842 8.174 2.745 10.245z"/><path d="m350.544 359.245 12.99 7.5c1.181.682 2.471 1.006 3.743 1.006 2.592 0 5.113-1.345 6.502-3.751 2.071-3.587.842-8.174-2.745-10.245l-12.99-7.5c-3.588-2.071-8.174-.843-10.245 2.745-2.071 3.587-.842 8.174 2.745 10.245z"/><path d="m120 296c0 4.143 3.358 7.5 7.5 7.5h15c4.142 0 7.5-3.357 7.5-7.5s-3.358-7.5-7.5-7.5h-15c-4.142 0-7.5 3.357-7.5 7.5z"/><path d="m362 296c0 4.143 3.358 7.5 7.5 7.5h15c4.142 0 7.5-3.357 7.5-7.5s-3.358-7.5-7.5-7.5h-15c-4.142 0-7.5 3.357-7.5 7.5z"/><path d="m148.466 366.745 12.99-7.5c3.587-2.071 4.816-6.658 2.745-10.245-2.071-3.588-6.659-4.815-10.245-2.745l-12.99 7.5c-3.587 2.071-4.816 6.658-2.745 10.245 1.389 2.406 3.91 3.751 6.502 3.751 1.272 0 2.562-.324 3.743-1.006z"/><path d="m363.534 225.255-12.99 7.5c-3.587 2.071-4.816 6.658-2.745 10.245 1.389 2.406 3.91 3.751 6.502 3.751 1.272 0 2.562-.324 3.743-1.006l12.99-7.5c3.587-2.071 4.816-6.658 2.745-10.245-2.071-3.588-6.658-4.814-10.245-2.745z"/><path d="m188 413.779c1.181.682 2.471 1.006 3.743 1.006 2.592 0 5.113-1.345 6.502-3.751l7.5-12.99c2.071-3.587.842-8.174-2.745-10.245-3.588-2.071-8.175-.843-10.245 2.745l-7.5 12.99c-2.071 3.587-.842 8.174 2.745 10.245z"/><path d="m312.743 205.207c2.592 0 5.113-1.345 6.502-3.751l7.5-12.99c2.071-3.587.842-8.174-2.745-10.245-3.587-2.07-8.174-.843-10.245 2.745l-7.5 12.99c-2.071 3.587-.842 8.174 2.745 10.245 1.181.682 2.471 1.006 3.743 1.006z"/></g></g></svg>